<svg id="Layer_1" data-name="Layer 1" xmlns="http://www.w3.org/2000/svg" xmlns:xlink="http://www.w3.org/1999/xlink" viewBox="0 0 335.1 46.86"><defs><style>.cls-1,.cls-3{fill:#fff;}.cls-1,.cls-10,.cls-11,.cls-12,.cls-13,.cls-14,.cls-15,.cls-16,.cls-17,.cls-18,.cls-19,.cls-20,.cls-21,.cls-22,.cls-4,.cls-8,.cls-9{stroke:#a54686;}.cls-1,.cls-10,.cls-11,.cls-12,.cls-13,.cls-14,.cls-15,.cls-16,.cls-17,.cls-18,.cls-19,.cls-2,.cls-20,.cls-21,.cls-22,.cls-4,.cls-6,.cls-8,.cls-9{stroke-miterlimit:2.61;}.cls-1,.cls-6{stroke-width:2px;}.cls-1,.cls-3,.cls-4,.cls-5,.cls-6,.cls-7{fill-rule:evenodd;}.cls-2,.cls-5{fill:#f58220;}.cls-2{stroke:#e6e7e8;stroke-width:1.5px;}.cls-10,.cls-11,.cls-12,.cls-13,.cls-14,.cls-15,.cls-16,.cls-17,.cls-18,.cls-19,.cls-20,.cls-21,.cls-22,.cls-4,.cls-8,.cls-9{stroke-width:0.22px;}.cls-4{fill:url(#GradientFill_1);}.cls-6{fill:none;stroke:#fff;}.cls-7{fill:#ffcb05;}.cls-8{fill:url(#GradientFill_1-2);}.cls-9{fill:url(#GradientFill_1-3);}.cls-10{fill:url(#GradientFill_1-4);}.cls-11{fill:url(#GradientFill_1-5);}.cls-12{fill:url(#GradientFill_1-6);}.cls-13{fill:url(#GradientFill_1-7);}.cls-14{fill:url(#GradientFill_1-8);}.cls-15{fill:url(#GradientFill_1-9);}.cls-16{fill:url(#GradientFill_1-10);}.cls-17{fill:url(#GradientFill_1-11);}.cls-18{fill:url(#GradientFill_1-12);}.cls-19{fill:url(#GradientFill_1-13);}.cls-20{fill:url(#GradientFill_1-14);}.cls-21{fill:url(#GradientFill_1-15);}.cls-22{fill:url(#GradientFill_1-16);}</style><radialGradient id="GradientFill_1" cx="25.9" cy="28.65" r="29.75" gradientUnits="userSpaceOnUse"><stop offset="0" stop-color="#ec008c"/><stop offset="1" stop-color="#8d406c"/></radialGradient><radialGradient id="GradientFill_1-2" cx="70.64" cy="25.76" r="14.12" xlink:href="#GradientFill_1"/><radialGradient id="GradientFill_1-3" cx="91.98" cy="25.76" r="12.82" xlink:href="#GradientFill_1"/><radialGradient id="GradientFill_1-4" cx="109.64" cy="25.76" r="12.17" xlink:href="#GradientFill_1"/><radialGradient id="GradientFill_1-5" cx="125.03" cy="25.76" r="12.17" xlink:href="#GradientFill_1"/><radialGradient id="GradientFill_1-6" cx="140.62" cy="25.76" r="12.22" xlink:href="#GradientFill_1"/><radialGradient id="GradientFill_1-7" cx="156.79" cy="25.76" r="12.49" xlink:href="#GradientFill_1"/><radialGradient id="GradientFill_1-8" cx="181.3" cy="25.9" r="12.53" xlink:href="#GradientFill_1"/><radialGradient id="GradientFill_1-9" cx="202.47" cy="25.76" r="12.08" xlink:href="#GradientFill_1"/><radialGradient id="GradientFill_1-10" cx="220.31" cy="25.76" r="12.77" xlink:href="#GradientFill_1"/><radialGradient id="GradientFill_1-11" cx="238.15" cy="25.76" r="12.41" xlink:href="#GradientFill_1"/><radialGradient id="GradientFill_1-12" cx="255.47" cy="25.76" r="12.29" xlink:href="#GradientFill_1"/><radialGradient id="GradientFill_1-13" cx="274.25" cy="25.74" r="12.77" xlink:href="#GradientFill_1"/><radialGradient id="GradientFill_1-14" cx="293.04" cy="25.76" r="12.3" xlink:href="#GradientFill_1"/><radialGradient id="GradientFill_1-15" cx="310.43" cy="25.76" r="12.41" xlink:href="#GradientFill_1"/><radialGradient id="GradientFill_1-16" cx="327.05" cy="25.76" r="12.08" xlink:href="#GradientFill_1"/></defs><title>B4u Wallet-02</title><path class="cls-1" d="M40.2,6.45a4.77,4.77,0,0,1,5,4.45V40.25c0,2.45-42.31,5-42.28,1.91l.26-28.25C3.27,5.54,34.58,6.45,40.2,6.45Z"/><circle class="cls-2" cx="26.41" cy="8.29" r="7.28"/><path class="cls-3" d="M23.71,3.5h1V1.62h1V3.5h1V1.62h1V3.5h.5a3.05,3.05,0,0,1,2.15.69,2.27,2.27,0,0,1,.75,1.72,2.19,2.19,0,0,1-.53,1.47A2.45,2.45,0,0,1,29.59,8a2.71,2.71,0,0,1,1.54.86,2.42,2.42,0,0,1,.49,1.53,2.67,2.67,0,0,1-.35,1.36,2.5,2.5,0,0,1-1,1,3.35,3.35,0,0,1-1.13.32c-.68.08-1.12.13-1.35.13h-.06V15h-1V13.18h-1v1.74h-1V13.18H22.12V11.9h1.24l.35-.36V5.09l-.39-.32h-1.2V3.5Zm2,3.8h0v.37c3.68.57,3.92-3.09,0-2.57l0,1.93V7.3Zm0,3.8.26.44c4.5.69,4.38-3.52-.08-2.69l-.18.29Z"/><path class="cls-4" d="M7.48,11H44.32c3.06,0,5.56,1.85,5.56,4.1v27c0,2.25-2.5,4.1-5.56,4.1H7.48c-3.05,0-5.55-1.85-5.55-4.1v-27C1.93,12.89,4.43,11,7.48,11Z"/><path class="cls-3" d="M9.11,26.33a5,5,0,0,0-1.62.49,4.09,4.09,0,0,0-1.24.92,3.66,3.66,0,0,0-.79,1.32,5.12,5.12,0,0,0-.28,1.76,6,6,0,0,0,.2,1.47,5.44,5.44,0,0,0,.68,1.5A5.93,5.93,0,0,0,7.3,35.12a6.21,6.21,0,0,0,1.9,1,9.65,9.65,0,0,0,1.93.41,23.14,23.14,0,0,0,2.54.12h5l6.08-20H13.85c-.44,0-.85,0-1.21,0s-.7,0-1,.07-.59.06-.85.11-.51.1-.74.15a7.61,7.61,0,0,0-1.67.7A4.85,4.85,0,0,0,7.1,18.78a4.49,4.49,0,0,0-.81,1.39A4.87,4.87,0,0,0,6,21.86a5.9,5.9,0,0,0,.17,1.4,4.15,4.15,0,0,0,.53,1.24,4.06,4.06,0,0,0,1,1,5.07,5.07,0,0,0,1.43.75v.06Zm3.62-1a10.49,10.49,0,0,1-1.21-.06,6.52,6.52,0,0,1-.91-.2A3,3,0,0,1,9,23.89,3.46,3.46,0,0,1,8.51,22,2.88,2.88,0,0,1,9,20.21a3.09,3.09,0,0,1,1.64-1A6.25,6.25,0,0,1,12,18.94a16.94,16.94,0,0,1,1.71-.07h2.66v6.45Zm3.6,2.2v6.94H13.47a18.43,18.43,0,0,1-1.89-.09,6.72,6.72,0,0,1-1.48-.31A3.81,3.81,0,0,1,9,33.48a2.88,2.88,0,0,1-.75-.77,3,3,0,0,1-.4-.9,3.92,3.92,0,0,1,0-2,2.48,2.48,0,0,1,.42-.9A2.83,2.83,0,0,1,9,28.18a4.24,4.24,0,0,1,1.21-.47,6.51,6.51,0,0,1,1-.14,13.64,13.64,0,0,1,1.39-.05Z"/><path class="cls-5" d="M4.87,30.49A5.38,5.38,0,0,0,8,36H26.25l1.44,1.91v1.65l-1.46,2.29H5.15v-4.6C4.78,35.31,3.77,33.7,4.87,30.49Z"/><path class="cls-3" d="M8.24,38.56a.72.72,0,0,0-.29.06.81.81,0,0,0-.24.17.89.89,0,0,0-.16.25.73.73,0,0,0-.07.3H8.89a1.06,1.06,0,0,0,0-.31.85.85,0,0,0-.13-.25.53.53,0,0,0-.2-.16.61.61,0,0,0-.28-.06Zm.25,2.16a1.87,1.87,0,0,0,.42,0,2.54,2.54,0,0,0,.37-.1V41a1.46,1.46,0,0,1-.37.12,3.58,3.58,0,0,1-.48,0A2,2,0,0,1,7.87,41a1.19,1.19,0,0,1-.47-.25,1.2,1.2,0,0,1-.31-.44A1.92,1.92,0,0,1,7,39.68,1.71,1.71,0,0,1,7.09,39a1.37,1.37,0,0,1,.28-.47,1.15,1.15,0,0,1,.41-.28,1.29,1.29,0,0,1,.48-.1,1.32,1.32,0,0,1,.44.08,1,1,0,0,1,.36.25,1.26,1.26,0,0,1,.23.43,2,2,0,0,1,.09.64v.18H7.45a1.21,1.21,0,0,0,.08.45.91.91,0,0,0,.22.31,1.29,1.29,0,0,0,.33.17,1.84,1.84,0,0,0,.41,0Zm1.57-1.36h1.3v.43h-1.3v-.43Zm3.8-.66c-.06.26-.12.48-.17.67L13.23,41h-.47l-.92-2.8h.46L12.82,40c.07.23.12.41.16.55h0c0-.14.08-.35.16-.62l.46-1.68h.52l.47,1.68c.06.23.11.44.15.62h0c0-.18.1-.37.15-.55l.52-1.75h.47L15,41h-.47l-.46-1.67c-.06-.2-.12-.42-.18-.67Zm4.25,2h0a.93.93,0,0,1-.14.14,1.37,1.37,0,0,1-.2.13l-.25.09a1.27,1.27,0,0,1-.28,0,1.06,1.06,0,0,1-.37-.06.83.83,0,0,1-.3-.18.92.92,0,0,1-.19-.28,1.18,1.18,0,0,1-.07-.39.87.87,0,0,1,.08-.37.83.83,0,0,1,.21-.28.88.88,0,0,1,.33-.18,1.33,1.33,0,0,1,.42-.06,1.7,1.7,0,0,1,.4,0,1.31,1.31,0,0,1,.33.09h0v-.2a1.12,1.12,0,0,0,0-.2.75.75,0,0,0-.05-.16.59.59,0,0,0-.24-.23.9.9,0,0,0-.46-.1,2.58,2.58,0,0,0-.4,0l-.37.11v-.38l.16-.07.21,0a.78.78,0,0,1,.22,0l.24,0a1.41,1.41,0,0,1,.69.15,1,1,0,0,1,.39.4.83.83,0,0,1,.06.21,1,1,0,0,1,0,.25V41h-.38l-.05-.31Zm0-.92-.31-.07a2.17,2.17,0,0,0-.38,0,.78.78,0,0,0-.46.12.45.45,0,0,0-.16.38.53.53,0,0,0,0,.23.38.38,0,0,0,.11.16.59.59,0,0,0,.17.1l.21,0a1.18,1.18,0,0,0,.28,0l.23-.11.16-.11.11-.1v-.56ZM19.46,41V36.77h.46V41Zm1.4,0V36.77h.46V41Zm2.47-2.48a.72.72,0,0,0-.29.06.76.76,0,0,0-.23.17.72.72,0,0,0-.16.25,1,1,0,0,0-.08.3H24a1.06,1.06,0,0,0,0-.31.82.82,0,0,0-.12-.25.62.62,0,0,0-.2-.16.68.68,0,0,0-.29-.06Zm.26,2.16a1.73,1.73,0,0,0,.41,0,2.24,2.24,0,0,0,.37-.1V41a1.46,1.46,0,0,1-.37.12,3.43,3.43,0,0,1-.47,0A2.12,2.12,0,0,1,23,41a1.17,1.17,0,0,1-.77-.69,1.71,1.71,0,0,1-.12-.67,1.92,1.92,0,0,1,.11-.67,1.54,1.54,0,0,1,.28-.47,1.25,1.25,0,0,1,.41-.28,1.33,1.33,0,0,1,.48-.1,1.23,1.23,0,0,1,.44.08.9.9,0,0,1,.36.25,1.27,1.27,0,0,1,.24.43,2,2,0,0,1,.08.64v.18H22.55a1,1,0,0,0,.08.45.79.79,0,0,0,.22.31,1,1,0,0,0,.33.17,1.7,1.7,0,0,0,.41,0Zm3.13.33a.47.47,0,0,1-.17,0,1.32,1.32,0,0,1-.3,0,1.12,1.12,0,0,1-.38-.06.7.7,0,0,1-.27-.15.72.72,0,0,1-.16-.25,1.07,1.07,0,0,1-.05-.32V38.63h-.54v-.39h.54v-.77h.45v.77h.84v.39h-.84v1.64a.57.57,0,0,0,0,.18.42.42,0,0,0,.09.14.49.49,0,0,0,.16.1.69.69,0,0,0,.22,0l.2,0,.18,0Z"/><path class="cls-6" d="M29.16,13.9,22,34c-.34,1,10.94-3.24,5.09,11.14"/><path class="cls-3" d="M37.93,42.7a11.16,11.16,0,0,1-3-.38,7.6,7.6,0,0,1-2.35-1.1c-.68-.48-1.81-1-1.73-1.75.34-3.44,0-7.68-5.63-7.65l6-14.56,1.7.08V31.59a12.92,12.92,0,0,0,.53,4.14,4.59,4.59,0,0,0,1.77,2.38,5.42,5.42,0,0,0,5.47,0,4.53,4.53,0,0,0,1.76-2.38A12.6,12.6,0,0,0,43,31.59V17.34h3.9V32a22,22,0,0,1-.16,2.83,11.07,11.07,0,0,1-.49,2.31,9.21,9.21,0,0,1-1.15,2.33,7.18,7.18,0,0,1-1.77,1.75,8,8,0,0,1-2.4,1.1A11.21,11.21,0,0,1,37.93,42.7Z"/><polygon class="cls-3" points="48.25 24.46 36.6 24.46 40.56 31.61 48.25 31.61 48.25 24.46"/><polygon class="cls-7" points="49.95 24.41 36.88 24.41 41.81 31.61 49.88 31.9 51.38 30.38 51.38 25.57 49.95 24.41"/><path class="cls-8" d="M70.75,24.72,68.94,41.65H62.08L58.54,9.88H63.4l2.68,25,2.4-25H73.3l2.49,25.24L78.38,9.88h4.36L79.2,41.65H72.57Z"/><path class="cls-9" d="M100.72,41.65h-5l-.86-5.76H88.69l-.87,5.76H83.24L88.32,9.88h7.31ZM89.32,31.58h4.81l-2.4-16.07Z"/><path class="cls-10" d="M103,9.88h5V37.11h8.21v4.54H103Z"/><path class="cls-11" d="M118.42,9.88h5V37.11h8.21v4.54H118.42Z"/><path class="cls-12" d="M138.81,23.27h6.85v4.54h-6.85v9.3h8.62v4.54H133.81V9.88h13.62v4.54h-8.62Z"/><path class="cls-13" d="M149.07,9.88H164.5v4.54h-5.22V41.65h-5V14.42h-5.22Z"/><path class="cls-14" d="M181.35,11.78c-3.68,0-5.54,2-5.54,5.9V19c0,2.86,1.59,5,4.36,5.17h4.9V20.59h2.09v3.54h1.72V26h-1.72V37.48a7.24,7.24,0,0,0,.81,4.17h-2.18a5.87,5.87,0,0,1-.68-3,5.47,5.47,0,0,1-5.35,3.32c-4.18,0-6-3-6-7.36v-3c0-3,1.32-5.63,4.18-6.59-2.86-.81-4.18-3.4-4.18-6.44v-.77c0-5.09,2.5-7.9,7.63-7.9h4.49v1.9ZM180.44,26c-3,.18-4.63,2.31-4.63,5.49v2.91c0,3.31,1.41,5.58,4.67,5.58a4.28,4.28,0,0,0,4.59-4.45V26Z"/><path class="cls-15" d="M207,24.58v1.91H198.3V39.75h10.44v1.9H196.21V9.88h12.53v1.9H198.3v12.8Z"/><path class="cls-16" d="M220.22,26.85l-6.44,14.8h-2.05l7.18-16.48L212.23,9.88h2.18l6,13.66,6-13.66h2l-6.67,15.29,7.12,16.48h-2.22Z"/><path class="cls-17" d="M245,17.64v2.63h-2V17.5c0-3.4-1.31-6-4.81-6s-4.81,2.59-4.81,6V34c0,3.4,1.31,5.94,4.81,5.94S243,37.43,243,34V30.26h2v3.63c0,4.59-2,8-6.86,8s-6.85-3.45-6.85-8V17.64c0-4.59,2-8,6.85-8S245,13.05,245,17.64Z"/><path class="cls-18" d="M250.5,26.72V41.65h-2.08V9.88h2.08V24.81h9.9V9.88h2.13V41.65H260.4V26.72Z"/><path class="cls-19" d="M269.21,34.62l-1.59,7h-1.91l7-31.82h3l7.08,31.82h-2.09l-1.59-7Zm.32-1.82h9.26l-4.68-20.56Z"/><path class="cls-20" d="M287.87,41.65H286V9.88h2.72l9.54,26.82V9.88h1.9V41.65h-2.31l-9.94-28.32Z"/><path class="cls-21" d="M317.28,17.64V20h-2V17.5c0-3.4-1.32-6-4.81-6s-4.82,2.59-4.82,6V34c0,3.4,1.32,5.94,4.82,5.94s4.81-2.54,4.81-5.94V27.17h-4.22v-1.9h6.21v8.62c0,4.59-2,8-6.85,8s-6.85-3.45-6.85-8V17.64c0-4.59,2-8,6.85-8S317.28,13.05,317.28,17.64Z"/><path class="cls-22" d="M331.54,24.58v1.91h-8.67V39.75h10.44v1.9H320.78V9.88h12.53v1.9H322.87v12.8Z"/></svg>