<svg width="89" height="13" viewBox="0 0 89 13" fill="none" xmlns="http://www.w3.org/2000/svg">
<path d="M14.9 10.88C14.9 10.952 14.948 11 15.02 11H17.936C19.724 11 20.744 10.22 20.744 8.6C20.744 7.604 20.156 6.956 19.652 6.764V6.74C20.168 6.464 20.6 5.936 20.6 5.012C20.6 3.704 19.784 2.84 18.056 2.84H15.02C14.948 2.84 14.9 2.888 14.9 2.96V10.88ZM16.388 6.236C16.34 6.236 16.316 6.212 16.316 6.164V4.16C16.316 4.112 16.34 4.088 16.388 4.088H18.02C18.74 4.088 19.184 4.52 19.184 5.168C19.184 5.804 18.74 6.236 18.02 6.236H16.388ZM16.316 9.68V7.556C16.316 7.508 16.34 7.484 16.388 7.484H18.092C18.884 7.484 19.328 7.94 19.328 8.612C19.328 9.296 18.884 9.752 18.092 9.752H16.388C16.34 9.752 16.316 9.728 16.316 9.68ZM26.6171 11C26.6891 11 26.7371 10.952 26.7371 10.88V7.1C26.7371 5.684 26.0891 5.084 24.3251 5.084C23.3771 5.084 22.7411 5.312 22.2731 5.648C22.2251 5.684 22.2131 5.744 22.2491 5.804L22.6931 6.596C22.7291 6.656 22.8011 6.668 22.8611 6.62C23.1371 6.404 23.5331 6.224 24.1811 6.224C25.1531 6.224 25.4651 6.524 25.4651 7.184V7.46C25.4651 7.508 25.4411 7.532 25.3931 7.532H24.2171C22.7891 7.532 21.9011 8.108 21.9011 9.368C21.9011 10.58 22.7891 11.132 23.8451 11.132C24.6611 11.132 25.2011 10.856 25.4771 10.46H25.4891V10.88C25.4891 10.952 25.5371 11 25.6091 11H26.6171ZM24.1811 10.04C23.5331 10.04 23.1851 9.8 23.1851 9.32C23.1851 8.78 23.5691 8.54 24.4331 8.54H25.3931C25.4411 8.54 25.4651 8.564 25.4651 8.612V9.056C25.4651 9.716 25.0091 10.04 24.1811 10.04ZM33.2103 11C33.2823 11 33.3303 10.952 33.3303 10.88V7.232C33.3303 5.996 32.5623 5.084 31.3263 5.084C30.5583 5.084 30.0543 5.396 29.8023 5.756H29.7903V5.336C29.7903 5.264 29.7423 5.216 29.6703 5.216H28.5663C28.4943 5.216 28.4463 5.264 28.4463 5.336V10.88C28.4463 10.952 28.4943 11 28.5663 11H29.6703C29.7423 11 29.7903 10.952 29.7903 10.88V7.544C29.7903 6.8 30.1983 6.284 30.8943 6.284C31.6143 6.284 31.9863 6.8 31.9863 7.544V10.88C31.9863 10.952 32.0343 11 32.1063 11H33.2103ZM40.0605 11C40.1325 11 40.1565 10.928 40.1205 10.88L38.0085 7.448L39.8445 5.336C39.8925 5.288 39.8685 5.216 39.7965 5.216H38.5725C38.4765 5.216 38.4165 5.252 38.3445 5.336L36.3645 7.664V2.96C36.3645 2.888 36.3165 2.84 36.2445 2.84H35.1405C35.0685 2.84 35.0205 2.888 35.0205 2.96V10.88C35.0205 10.952 35.0685 11 35.1405 11H36.2445C36.3165 11 36.3645 10.952 36.3645 10.88V9.356L37.1445 8.456L38.6085 10.88C38.6565 10.964 38.7165 11 38.8005 11H40.0605ZM47.0091 11C47.0811 11 47.1291 10.952 47.1291 10.88V4.184C47.1291 4.136 47.1531 4.112 47.2011 4.112H49.3371C49.4091 4.112 49.4571 4.064 49.4571 3.992V2.96C49.4571 2.888 49.4091 2.84 49.3371 2.84H43.5051C43.4331 2.84 43.3851 2.888 43.3851 2.96V3.992C43.3851 4.064 43.4331 4.112 43.5051 4.112H45.6411C45.6891 4.112 45.7131 4.136 45.7131 4.184V10.88C45.7131 10.952 45.7611 11 45.8331 11H47.0091ZM51.8188 11C51.8908 11 51.9388 10.952 51.9388 10.88V7.748C51.9388 6.824 52.2748 6.284 53.0308 6.284C53.3428 6.284 53.6188 6.392 53.8828 6.56C53.9428 6.608 54.0028 6.596 54.0508 6.536L54.6868 5.732C54.7348 5.672 54.7228 5.624 54.6628 5.564C54.3628 5.264 53.9068 5.084 53.4508 5.084C52.7188 5.084 52.2268 5.384 51.9508 5.828H51.9388V5.336C51.9388 5.264 51.8908 5.216 51.8188 5.216H50.7148C50.6428 5.216 50.5948 5.264 50.5948 5.336V10.88C50.5948 10.952 50.6428 11 50.7148 11H51.8188ZM59.91 11C59.982 11 60.03 10.952 60.03 10.88V7.1C60.03 5.684 59.382 5.084 57.618 5.084C56.67 5.084 56.034 5.312 55.566 5.648C55.518 5.684 55.506 5.744 55.542 5.804L55.986 6.596C56.022 6.656 56.094 6.668 56.154 6.62C56.43 6.404 56.826 6.224 57.474 6.224C58.446 6.224 58.758 6.524 58.758 7.184V7.46C58.758 7.508 58.734 7.532 58.686 7.532H57.51C56.082 7.532 55.194 8.108 55.194 9.368C55.194 10.58 56.082 11.132 57.138 11.132C57.954 11.132 58.494 10.856 58.77 10.46H58.782V10.88C58.782 10.952 58.83 11 58.902 11H59.91ZM57.474 10.04C56.826 10.04 56.478 9.8 56.478 9.32C56.478 8.78 56.862 8.54 57.726 8.54H58.686C58.734 8.54 58.758 8.564 58.758 8.612V9.056C58.758 9.716 58.302 10.04 57.474 10.04ZM66.5033 11C66.5753 11 66.6233 10.952 66.6233 10.88V7.232C66.6233 5.996 65.8553 5.084 64.6193 5.084C63.8513 5.084 63.3473 5.396 63.0953 5.756H63.0833V5.336C63.0833 5.264 63.0353 5.216 62.9633 5.216H61.8593C61.7873 5.216 61.7393 5.264 61.7393 5.336V10.88C61.7393 10.952 61.7873 11 61.8593 11H62.9633C63.0353 11 63.0833 10.952 63.0833 10.88V7.544C63.0833 6.8 63.4913 6.284 64.1873 6.284C64.9073 6.284 65.2793 6.8 65.2793 7.544V10.88C65.2793 10.952 65.3273 11 65.3993 11H66.5033ZM70.4495 11.132C72.0335 11.132 72.8735 10.328 72.8735 9.176C72.8735 8.228 72.2975 7.604 71.0855 7.484L70.4615 7.424C69.7175 7.352 69.5135 7.148 69.5135 6.812C69.5135 6.464 69.8135 6.212 70.3895 6.212C70.9655 6.212 71.5415 6.44 71.9015 6.692C71.9615 6.728 72.0215 6.728 72.0695 6.668L72.6575 5.96C72.6935 5.912 72.6935 5.84 72.6335 5.792C72.1175 5.384 71.3615 5.084 70.4615 5.084C69.0215 5.084 68.2175 5.792 68.2175 6.908C68.2175 7.892 68.8175 8.492 69.9935 8.612L70.6175 8.672C71.3735 8.744 71.5775 8.96 71.5775 9.308C71.5775 9.704 71.2175 9.992 70.5095 9.992C69.9095 9.992 69.2375 9.716 68.8175 9.332C68.7695 9.284 68.6975 9.284 68.6495 9.332L67.9655 10.052C67.9175 10.1 67.9175 10.172 67.9655 10.22C68.4455 10.664 69.2615 11.132 70.4495 11.132ZM75.6941 11C75.7661 11 75.8141 10.952 75.8141 10.88V6.332C75.8141 6.284 75.8381 6.26 75.8861 6.26H76.9181C76.9901 6.26 77.0381 6.212 77.0381 6.14V5.336C77.0381 5.264 76.9901 5.216 76.9181 5.216H75.8861C75.8381 5.216 75.8141 5.192 75.8141 5.144V4.748C75.8141 4.184 75.9461 4.04 76.5461 4.04H76.9181C76.9901 4.04 77.0381 3.992 77.0381 3.92V2.96C77.0381 2.888 76.9901 2.84 76.9181 2.84H76.3901C75.1301 2.84 74.4701 3.428 74.4701 4.772V5.144C74.4701 5.192 74.4461 5.216 74.3981 5.216H74.0141C73.9421 5.216 73.8941 5.264 73.8941 5.336V6.14C73.8941 6.212 73.9421 6.26 74.0141 6.26H74.3981C74.4461 6.26 74.4701 6.284 74.4701 6.332V10.88C74.4701 10.952 74.5181 11 74.5901 11H75.6941ZM80.5316 11.132C81.5996 11.132 82.4156 10.724 82.9076 10.148C82.9556 10.088 82.9556 10.028 82.8956 9.98L82.1876 9.356C82.1276 9.308 82.0676 9.32 82.0076 9.38C81.7196 9.692 81.2996 9.932 80.6516 9.932C80.0036 9.932 79.5476 9.62 79.3556 9.056C79.3076 8.924 79.2716 8.78 79.2716 8.612C79.2716 8.564 79.2956 8.54 79.3436 8.54H82.9076C82.9916 8.54 83.0396 8.492 83.0396 8.42C83.0396 7.484 82.9796 7.088 82.8476 6.68C82.5236 5.696 81.6596 5.084 80.4716 5.084C79.3196 5.084 78.4316 5.672 78.1076 6.68C77.9876 7.052 77.9156 7.508 77.9156 8.108C77.9156 8.708 77.9996 9.152 78.1196 9.524C78.4436 10.532 79.3076 11.132 80.5316 11.132ZM81.6836 7.46C81.6836 7.508 81.6596 7.532 81.6116 7.532H79.3436C79.2956 7.532 79.2716 7.508 79.2716 7.46C79.2716 7.256 79.2956 7.112 79.3436 6.968C79.4996 6.5 79.9316 6.224 80.4836 6.224C81.0236 6.224 81.4556 6.5 81.6116 6.968C81.6596 7.112 81.6836 7.256 81.6836 7.46ZM85.7094 11C85.7814 11 85.8294 10.952 85.8294 10.88V7.748C85.8294 6.824 86.1654 6.284 86.9214 6.284C87.2334 6.284 87.5094 6.392 87.7734 6.56C87.8334 6.608 87.8934 6.596 87.9414 6.536L88.5774 5.732C88.6254 5.672 88.6134 5.624 88.5534 5.564C88.2534 5.264 87.7974 5.084 87.3414 5.084C86.6094 5.084 86.1174 5.384 85.8414 5.828H85.8294V5.336C85.8294 5.264 85.7814 5.216 85.7094 5.216H84.6054C84.5334 5.216 84.4854 5.264 84.4854 5.336V10.88C84.4854 10.952 84.5334 11 84.6054 11H85.7094Z" fill="#48515D"/>
<path d="M6 1.8L9 3.15H3.075L6 1.8ZM6 0.375L1.5 2.4V4.35H10.5V2.325L6 0.375Z" fill="#48515D"/>
<path d="M10.5 9.97559H1.5V11.2506H10.5V9.97559Z" fill="#48515D"/>
<path d="M3.525 5.47559H2.25V8.85059H3.525V5.47559Z" fill="#48515D"/>
<path d="M6.67507 5.47559H5.32507V8.85059H6.67507V5.47559Z" fill="#48515D"/>
<path d="M9.75004 5.47559H8.47504V8.85059H9.75004V5.47559Z" fill="#48515D"/>
</svg>
