<svg width="20" height="12" viewBox="0 0 20 12" fill="none" xmlns="http://www.w3.org/2000/svg">
<path d="M12.434 5.99997C12.434 9.31437 9.65111 11.9999 6.21702 11.9999C2.78292 11.9999 0 9.31378 0 5.99997C0 2.68615 2.7836 0 6.21702 0C9.65043 0 12.434 2.68615 12.434 5.99997Z" fill="#E2574C"/>
<path d="M13.7812 0C12.3869 0 11.1033 0.448208 10.066 1.19643L10.071 1.19702C10.275 1.3872 10.5001 1.52105 10.6736 1.73999L9.38008 1.7598C9.17737 1.95721 8.99266 2.17201 8.81853 2.39522H11.0996C11.2731 2.5962 11.4335 2.77085 11.5791 2.99281H8.40499C8.2887 3.18602 8.18113 3.38462 8.08721 3.59099H11.9404C12.0412 3.79677 12.1314 3.9522 12.2079 4.17002H7.85899C7.78997 4.37705 7.7309 4.58881 7.68609 4.80479H12.3901C12.4361 5.01241 12.4715 5.20437 12.4958 5.40001H7.59278C7.57225 5.59743 7.56168 5.79781 7.56168 6.00003H12.5312C12.5312 6.21246 12.5156 6.40922 12.4933 6.60006H7.59278C7.61392 6.80346 7.64503 7.00325 7.68609 7.20008H12.3826C12.3341 7.39447 12.2781 7.59005 12.2078 7.79286H7.84467C7.91056 7.99805 7.99084 8.19724 8.07848 8.39164H11.9404C11.8335 8.61005 11.7122 8.78463 11.5785 8.98923H8.39387C8.51951 9.19921 8.65817 9.39959 8.80864 9.59162L11.0997 9.62459C10.9044 9.85076 10.6538 9.98698 10.4255 10.185C10.4379 10.1946 10.0604 10.1838 9.31726 10.1724C10.4479 11.298 12.0281 12 13.7811 12C17.2159 12 20 9.31378 20 6.00003C20 2.68628 17.2165 0 13.7812 0Z" fill="#F4B459"/>
</svg>
