<svg xmlns="http://www.w3.org/2000/svg" width="54.682" height="57.72" viewBox="0 0 54.682 57.72">
  <g id="Group_1405" data-name="Group 1405" transform="translate(0.121)">
    <g id="Group_1404" data-name="Group 1404" transform="translate(0.296)">
      <path id="Path_464" data-name="Path 464" d="M181.1,25.373c3.33,0,7.989,1.1,5.7,1.232-3.162.18-9.119-1.214-5.7-1.232" transform="translate(-151.904 -25.373)" fill="#89167b"/>
      <path id="Path_465" data-name="Path 465" d="M166.256,31.018c-5,2.7-10.628.3-5.6-1.993C165.367,26.84,170.429,28.75,166.256,31.018Z" transform="translate(-140.107 -26.857)" fill="#89167b"/>
      <path id="Path_466" data-name="Path 466" d="M141.286,47.5c-4.927,4.792-8.784.843-4-3.765S146.153,42.785,141.286,47.5Z" transform="translate(-127.093 -34.331)" fill="#89167b"/>
      <path id="Path_467" data-name="Path 467" d="M210.115,36.975c-1.829,1.279-9.655-4.365-6.848-4.843C205.625,31.727,211.493,36.009,210.115,36.975Z" transform="translate(-164.368 -29.087)" fill="#89167b"/>
      <path id="Path_468" data-name="Path 468" d="M128.617,117.545c-1.171,1.6-5.667-4.386-5.03-7.063C124.352,107.416,130.172,115.446,128.617,117.545Z" transform="translate(-120.708 -71.705)" fill="#89167b"/>
      <path id="Path_469" data-name="Path 469" d="M190.059,31.77c-2.263,1.012-6.88-1.322-4.342-2.151C188.093,28.861,192.048,30.891,190.059,31.77Z" transform="translate(-154.609 -27.624)" fill="#89167b"/>
      <path id="Path_470" data-name="Path 470" d="M165.246,45.092c-3.426,2.758-7.82-.549-4.319-3.167C164.288,39.39,168.49,42.464,165.246,45.092Z" transform="translate(-140.633 -33.982)" fill="#89167b"/>
      <path id="Path_471" data-name="Path 471" d="M138.716,70.848c-2.793,3.317-6.028-.848-3.3-4.243C138.185,63.107,141.643,67.368,138.716,70.848Z" transform="translate(-126.698 -47.289)" fill="#89167b"/>
      <path id="Path_472" data-name="Path 472" d="M123.767,96.544c-1.072,2.171-3.177-1.948-2.242-4.394C122.492,89.492,125,94,123.767,96.544Z" transform="translate(-119.475 -61.585)" fill="#89167b"/>
      <path id="Path_473" data-name="Path 473" d="M217.457,51.446c-1.534,1.917-6.272-2.868-4.383-4.428C214.758,45.635,218.817,49.745,217.457,51.446Z" transform="translate(-169.869 -37.103)" fill="#89167b"/>
      <path id="Path_474" data-name="Path 474" d="M165.758,101.241c-3.5,3.336-8.9-2.03-5.537-5.518C163.717,92.091,169.411,97.757,165.758,101.241Z" transform="translate(-140.368 -63.342)" fill="#89167b"/>
      <path id="Path_475" data-name="Path 475" d="M144.173,124.552c-1.913,1.57-6.148-2.666-4.567-4.524C141.381,117.937,146.305,122.8,144.173,124.552Z" transform="translate(-129.388 -77.055)" fill="#89167b"/>
      <path id="Path_476" data-name="Path 476" d="M232.184,58.046c-.439,2.818-5.948-4.941-4.731-6.859C228.377,49.787,232.593,55.628,232.184,58.046Z" transform="translate(-177.947 -39.424)" fill="#89167b"/>
      <path id="Path_477" data-name="Path 477" d="M167.364,127.053c-5.138,3.379-12.777-2.913-8.518-6.763C163.848,115.832,173.01,123.275,167.364,127.053Z" transform="translate(-139.508 -76.661)" fill="#89167b"/>
      <path id="Path_478" data-name="Path 478" d="M150.4,140.38c-2.681.632-8.719-3.787-7.069-4.912C145.5,133.949,153.536,139.681,150.4,140.38Z" transform="translate(-131.479 -85.655)" fill="#89167b"/>
      <path id="Path_479" data-name="Path 479" d="M171.488,145.421c-2.568.933-6.494-1.134-4.346-2.152C169.616,142.082,174.164,144.435,171.488,145.421Z" transform="translate(-144.428 -89.92)" fill="#89167b"/>
      <path id="Path_480" data-name="Path 480" d="M192.489,143.245c-4.851,2.476-9.682.516-5.365-2.006C192.2,138.289,197.582,140.646,192.489,143.245Z" transform="translate(-154.869 -88.225)" fill="#89167b"/>
      <path id="Path_481" data-name="Path 481" d="M173.316,151.84c-3.379.2-8.22-.874-5.678-1.167C170.994,150.282,176.954,151.623,173.316,151.84Z" transform="translate(-144.652 -94.145)" fill="#89167b"/>
      <path id="Path_482" data-name="Path 482" d="M212.666,139.1c-2.629,1.929-4.174,1.422-1.569-.539C213.909,136.479,215.262,137.188,212.666,139.1Z" transform="translate(-168.279 -86.806)" fill="#89167b"/>
      <path id="Path_483" data-name="Path 483" d="M191.766,150.938c-2.5.685-4.606.7-2.485.092C191.922,150.281,194.13,150.3,191.766,150.938Z" transform="translate(-156.503 -94.068)" fill="#89167b"/>
      <path id="Path_484" data-name="Path 484" d="M169.529,25.705c1.86-.069-1.806.805-3.474.805-1.441.014,1.716-.742,3.474-.805" transform="translate(-143.969 -25.554)" fill="#89167b"/>
      <path id="Path_485" data-name="Path 485" d="M147.6,34.888c-2.826,1.949-4.447,1.333-1.77-.491C148.455,32.6,150.255,33.02,147.6,34.888Z" transform="translate(-132.259 -29.718)" fill="#89167b"/>
      <path id="Path_486" data-name="Path 486" d="M127.794,53.873c-1.982,2.622-2.559,1.035-.6-1.638C129.22,49.515,129.827,51.183,127.794,53.873Z" transform="translate(-122.064 -39.359)" fill="#89167b"/>
      <path id="Path_487" data-name="Path 487" d="M117.7,75.793c-.663,2.23-.585-.267.041-2.546C118.441,70.823,118.418,73.241,117.7,75.793Z" transform="translate(-117.241 -51.107)" fill="#89167b"/>
    </g>
    <path id="Path_488" data-name="Path 488" d="M154.889,40.247c-4.865-3.659-11.518-.075-8.024,4.424-.6.512-3.857,3.531-4.261,3.9-5.217-3.022-11.707,2.831-9,8.3q-2.171,2.334-4.084,4.624a3.719,3.719,0,0,0-4.276-.178c-1.251-1.634-2.117-2.845-3.208-4.57,2.082-5.091-.424-8.822-2.727-4.311-.841,1.635-1.423,4.331-.9,6.021-1.112,3.611-.869,3.453-.988,2.971-.777-3.162-1.21.9-.421,4.914.664,3.1,1.178,1.086.822-2.432,1.83-7.125,1.027-2.829,3.03-5.136.916,1.561,1.835,3.031,2.874,4.468-2.238,5.482,3.848,11.562,7.351,7.712,1.605-1.761,1.722-4.732.455-7.128,1.327-1.513,2.742-3.06,4.231-4.629,5.572,3.331,12.29-3.593,8.674-8.915,4.033-3.947,3.5-3.448,4.182-4.066C154.544,49.913,160.257,44.256,154.889,40.247Z" transform="translate(-116.581 -32.745)" fill="#dc0079" stroke="#dc0079" stroke-miterlimit="2.613" stroke-width="0.216"/>
  </g>
</svg>
