<svg xmlns="http://www.w3.org/2000/svg" width="313.78" height="128.045" viewBox="0 0 313.78 128.045">
  <g id="B4U_Global_-_Logo" data-name="B4U Global - Logo" transform="translate(0.14 -0.37)">
    <text id="B4U_GLOBAL" data-name="B4U GLOBAL" transform="translate(74.64 76.8)" fill="#606161" font-size="34.99" font-family="Montserrat-SemiBold, Montserrat" font-weight="600"><tspan x="0" y="0">B4U G</tspan><tspan y="0" letter-spacing="-0.01em">L</tspan><tspan y="0">OBAL</tspan></text>
    <path id="Path_801" data-name="Path 801" d="M65.78.37c7.43,0,17.82,2.46,12.71,2.75-7,.4-20.34-2.7-12.71-2.75" fill="#a2268d"/>
    <path id="Path_802" data-name="Path 802" d="M59,9.65c-11.16,6-23.71.68-12.51-4.44C57,.34,68.29,4.6,59,9.65Z" fill="#a2268d"/>
    <path id="Path_803" data-name="Path 803" d="M32.32,29.74c-11,10.69-19.6,1.88-8.92-8.4S43.17,19.23,32.32,29.74Z" fill="#a2268d"/>
    <path id="Path_804" data-name="Path 804" d="M102.7,18C98.62,20.85,81.16,8.26,87.42,7.2,92.69,6.26,105.77,15.81,102.7,18Z" fill="#a2268d"/>
    <path id="Path_805" data-name="Path 805" d="M18.3,102.09C15.69,105.66,5.66,92.3,7.08,86.33,8.79,79.49,21.77,97.4,18.3,102.09Z" fill="#a2268d"/>
    <path id="Path_806" data-name="Path 806" d="M79.73,9.62c-5,2.26-15.34-2.95-9.68-4.8C75.35,3.13,84.17,7.66,79.73,9.62Z" fill="#a2268d"/>
    <path id="Path_807" data-name="Path 807" d="M55.56,25.15c-7.64,6.15-17.44-1.22-9.63-7.06C53.42,12.44,62.8,19.29,55.56,25.15Z" fill="#a2268d"/>
    <path id="Path_808" data-name="Path 808" d="M27.47,52.67c-6.23,7.4-13.45-1.89-7.37-9.46C26.28,35.41,34,44.91,27.47,52.67Z" fill="#a2268d"/>
    <path id="Path_809" data-name="Path 809" d="M10.23,78c-2.39,4.84-7.08-4.35-5-9.8C7.39,62.22,13,72.28,10.23,78Z" fill="#a2268d"/>
    <path id="Path_810" data-name="Path 810" d="M106.81,32.24c-3.42,4.27-14-6.4-9.78-9.88C100.79,19.28,109.84,28.44,106.81,32.24Z" fill="#a2268d"/>
    <path id="Path_811" data-name="Path 811" d="M57.29,84.47c-7.8,7.44-19.84-4.53-12.35-12.31C52.74,64.06,65.44,76.7,57.29,84.47Z" fill="#a2268d"/>
    <path id="Path_812" data-name="Path 812" d="M33.64,105.75c-4.27,3.5-13.71-6-10.19-10.09C27.41,91,38.39,101.85,33.64,105.75Z" fill="#a2268d"/>
    <path id="Path_813" data-name="Path 813" d="M121.64,41.75c-1,6.28-13.27-11-10.55-15.3C113.15,23.33,122.55,36.36,121.64,41.75Z" fill="#a2268d"/>
    <path id="Path_814" data-name="Path 814" d="M62.79,112.07c-11.46,7.54-28.5-6.49-19-15.08C55,87,75.39,103.65,62.79,112.07Z" fill="#a2268d"/>
    <path id="Path_815" data-name="Path 815" d="M42.86,121.74c-6,1.41-19.44-8.45-15.76-11C31.92,107.4,49.86,120.18,42.86,121.74Z" fill="#a2268d"/>
    <path id="Path_816" data-name="Path 816" d="M61,123.47c-5.73,2.08-14.49-2.53-9.7-4.8C56.84,116,67,121.27,61,123.47Z" fill="#a2268d"/>
    <path id="Path_817" data-name="Path 817" d="M84.57,122.4c-10.82,5.52-21.6,1.15-12-4.48C83.93,111.34,95.93,116.6,84.57,122.4Z" fill="#a2268d"/>
    <path id="Path_818" data-name="Path 818" d="M64.6,128.36c-7.54.45-18.34-2-12.67-2.6C59.42,124.89,72.71,127.88,64.6,128.36Z" fill="#a2268d"/>
    <path id="Path_819" data-name="Path 819" d="M99.67,116.32c-5.87,4.31-9.31,3.17-3.5-1.2C102.44,110.47,105.46,112.05,99.67,116.32Z" fill="#a2268d"/>
    <path id="Path_820" data-name="Path 820" d="M79.32,126.52c-5.58,1.53-10.28,1.55-5.55.21C79.66,125.06,84.59,125.09,79.32,126.52Z" fill="#a2268d"/>
    <path id="Path_821" data-name="Path 821" d="M57.67.71c4.15-.15-4,1.8-7.75,1.8-3.21,0,3.83-1.66,7.75-1.8" fill="#a2268d"/>
    <path id="Path_822" data-name="Path 822" d="M34.87,11.9c-6.3,4.35-9.92,3-3.94-1.09S40.8,7.74,34.87,11.9Z" fill="#a2268d"/>
    <path id="Path_823" data-name="Path 823" d="M13.44,32.6C9,38.45,7.73,34.91,12.1,28.94,16.62,22.88,18,26.6,13.44,32.6Z" fill="#a2268d"/>
    <path id="Path_824" data-name="Path 824" d="M1.69,55.16c-1.48,5-1.3-.6.1-5.68C3.34,44.07,3.29,49.47,1.69,55.16Z" fill="#a2268d"/>
    <path id="Path_825" data-name="Path 825" d="M85.45,17.1C74.6,8.94,59.76,16.94,67.55,27c-1.34,1.15-8.6,7.88-9.5,8.7C46.41,28.93,31.93,42,38,54.19c-3.23,3.47-6.27,6.92-9.11,10.31-3.17-2.16-6.76-2.27-9.54-.39-2.79-3.65-4.72-6.35-7.15-10.2,4.64-11.35-.95-19.68-6.08-9.61C4.2,47.94,2.9,54,4.07,57.73c-2.48,8.05-1.93,7.7-2.2,6.62-1.73-7-2.7,2-.94,11,1.48,6.92,2.63,2.43,1.84-5.42C6.85,54,5.06,63.58,9.52,58.43c2.05,3.49,4.1,6.77,6.41,10-5,12.23,8.59,25.79,16.4,17.2,3.58-3.93,3.84-10.55,1-15.9q4.44-5.06,9.43-10.32c12.43,7.43,27.42-8,19.35-19.89,9-8.8,7.81-7.69,9.33-9.07C84.68,38.67,97.42,26.05,85.45,17.1Z" fill="#e90e8b" stroke="#e90e8b" stroke-miterlimit="2.61" stroke-width="0.22"/>
    <text id="A_NAME_OF_TRUST" data-name="A NAME OF TRUST" stroke-miterlimit="2.61" fill="#e90e8b" stroke="#e90e8b" transform="translate(69.09 95.51)" stroke-width="0.22" font-size="16.46" font-family="Montserrat-Light, Montserrat" font-weight="300" letter-spacing="0.01em"><tspan x="0" y="0">A NAME OF TRU</tspan><tspan y="0">S</tspan><tspan y="0">T</tspan></text>
  </g>
</svg>
